PathFileType	4	(X/Y/Z)	c:/Users/goper/Files/vsCode/490R/osim_files/A05/A05_Fast_01.trc
DataRate	CameraRate	NumFrames	NumMarkers	Units                	OrigDataRate	OrigDataStartFrame	OrigNumFrames
250.00	250.00	7	36	mm	250.0	1788	2383
                Frame#	Time	LPSIS			LASIS			LTH1			LTH2			LTH3			LTH4			LLFE			LMFE			LSH1			LSH2			LSH3			LSH4			LLMAL			LMMAL			LCAL			LMTP5			LTOE			LMTP1			RPSIS			RASIS			RTH1			RTH2			RTH3			RTH4			RLFE			RMFE			RSH1			RSH2			RSH3			RSH4			RLMAL			RMMAL			RCAL			RMTP1			RTOE			RMTP5		
		X1	Y1	Z1	X2	Y2	Z2	X3	Y3	Z3	X4	Y4	Z4	X5	Y5	Z5	X6	Y6	Z6	X7	Y7	Z7	X8	Y8	Z8	X9	Y9	Z9	X10	Y10	Z10	X11	Y11	Z11	X12	Y12	Z12	X13	Y13	Z13	X14	Y14	Z14	X15	Y15	Z15	X16	Y16	Z16	X17	Y17	Z17	X18	Y18	Z18	X19	Y19	Z19	X20	Y20	Z20	X21	Y21	Z21	X22	Y22	Z22	X23	Y23	Z23	X24	Y24	Z24	X25	Y25	Z25	X26	Y26	Z26	X27	Y27	Z27	X28	Y28	Z28	X29	Y29	Z29	X30	Y30	Z30	X31	Y31	Z31	X32	Y32	Z32	X33	Y33	Z33	X34	Y34	Z34	X35	Y35	Z35	X36	Y36	Z36

1788	7.14800	0.00000	0.00000	0.00000	-2955.23926	983.15918	496.41742	0.00000	0.00000	0.00000	-2810.10669	662.96484	558.34186	-2859.97217	710.12122	575.06738	-2859.92773	666.82391	575.63245	-2854.53979	485.19229	567.89575	-2864.12354	474.16867	468.93146	-2760.84473	443.51724	570.23682	-2729.27905	413.36206	570.96118	-2798.69434	395.34436	566.87592	-2760.63770	371.68353	568.98199	-2582.98071	239.72261	564.45007	0.00000	0.00000	0.00000	-2495.72632	252.20610	496.37012	-2625.62183	109.44829	612.22980	-2683.27148	83.57574	560.17511	-2656.02832	100.04766	505.72495	-2785.16528	1020.89270	290.80298	-2976.74731	974.27893	201.51886	0.00000	0.00000	0.00000	0.00000	0.00000	0.00000	-3067.21167	639.91492	174.30925	-3077.40332	593.74628	184.37036	0.00000	0.00000	0.00000	-3035.84424	509.50922	300.71442	-3012.50513	265.48093	155.05818	0.00000	0.00000	0.00000	-3074.76611	267.25299	166.42763	-3071.47632	219.34877	169.42116	0.00000	0.00000	0.00000	-3072.39233	138.42883	270.43979	-2977.20386	70.91122	267.25748	-3192.71948	62.22788	261.72675	-3223.14258	72.50391	207.01799	-3156.02393	48.59503	148.96802
1789	7.15200	0.00000	0.00000	0.00000	-2958.30151	984.56842	495.87537	0.00000	0.00000	0.00000	-2816.09644	663.48505	558.11755	-2865.42480	711.20520	574.72272	-2865.90430	667.91895	575.34814	-2862.31348	486.46756	567.71240	-2872.27222	475.07925	468.88510	-2768.55103	445.05438	569.73975	-2736.91431	415.34326	570.43744	-2805.95435	396.58466	566.40521	-2767.82764	373.14795	568.49902	-2588.99219	242.50529	563.16809	-2607.87842	234.62486	473.48706	-2502.19141	255.83408	494.79349	-2630.60620	111.89537	610.94806	-2688.46631	85.80864	559.09180	-2661.47168	102.53876	504.53809	-2787.47925	1022.53619	289.07028	-2980.28101	975.00110	200.84419	0.00000	0.00000	0.00000	0.00000	0.00000	0.00000	-3069.22778	640.08508	174.58109	-3079.21484	593.83655	184.54788	0.00000	0.00000	0.00000	-3036.43384	509.89114	300.62207	-3013.21387	265.67200	154.96600	0.00000	0.00000	0.00000	-3075.45679	267.29303	166.40791	-3072.02271	219.38960	169.39632	0.00000	0.00000	0.00000	-3072.60864	138.77493	270.38284	-2978.36377	71.97539	268.27182	-3192.81152	62.15179	261.72324	-3222.90405	71.86251	207.16429	-3155.98438	48.55214	148.92609
1790	7.15600	0.00000	0.00000	0.00000	-2961.47559	985.96747	495.34970	0.00000	0.00000	0.00000	-2822.18115	664.01422	557.93420	-2870.82300	712.25293	574.42230	-2871.84473	668.97864	575.12036	-2869.94995	488.12448	567.51019	-2883.09790	477.47342	469.37952	-2776.16504	446.65771	569.31738	-2744.10669	417.00735	569.74579	-2813.40723	398.00708	566.09924	-2775.35889	374.87726	568.07892	-2595.27026	245.23805	561.89795	-2609.18628	235.35870	473.49655	-2508.87158	259.16644	493.09653	-2635.93799	114.35152	609.73236	-2693.83423	87.95544	558.05109	-2667.27979	104.95924	503.44165	-2792.04590	1022.68884	288.95740	-2983.73926	975.67767	200.22670	0.00000	0.00000	0.00000	0.00000	0.00000	0.00000	-3069.59546	639.43835	174.18599	-3082.72412	594.90179	185.09259	-3021.12256	528.76270	160.41306	-3036.49536	510.04468	300.34772	-3013.82568	265.83920	154.92360	0.00000	0.00000	0.00000	-3076.23169	267.39935	166.39726	-3072.51685	219.45212	169.33531	0.00000	0.00000	0.00000	-3072.72266	138.84068	270.41925	-2978.42334	72.21716	268.27344	-3192.86621	62.05637	261.76660	-3222.98682	71.71648	207.19518	-3156.08472	48.60795	148.98070
1791	7.16000	0.00000	0.00000	0.00000	-2964.53638	987.30615	494.74347	0.00000	0.00000	0.00000	-2828.12817	664.46216	557.58496	-2876.16357	713.24866	574.10663	-2877.65503	670.05524	574.92493	-2878.09302	488.71289	567.57550	-2888.53052	477.13919	468.84448	-2783.38623	448.13000	568.26294	-2751.77124	418.88443	569.29248	-2820.79663	399.40726	565.83716	-2782.61499	376.33508	567.65509	-2601.83276	247.90295	560.76910	-2615.40869	237.73041	472.29568	-2515.65137	262.59821	491.58527	-2641.52368	116.66861	608.46057	-2699.39331	90.00003	556.96210	-2673.05347	107.20591	502.23428	-2796.08276	1024.69971	288.43619	-2987.38159	976.42133	199.62256	0.00000	0.00000	0.00000	0.00000	0.00000	0.00000	-3071.37964	639.52771	174.13397	-3084.24805	594.85040	184.97594	-3022.26538	528.92053	160.14050	-3037.80908	510.52347	300.39325	-3014.47925	266.05920	154.90668	0.00000	0.00000	0.00000	-3076.84912	267.42691	166.41023	-3073.06641	219.48329	169.36482	0.00000	0.00000	0.00000	-3072.24951	137.65160	269.83490	-2978.51831	72.35052	268.26050	-3192.94531	61.94966	261.77921	-3223.07617	71.59964	207.25478	-3156.05103	48.55334	148.95534
1792	7.16400	0.00000	0.00000	0.00000	-2967.72339	988.68353	494.23196	0.00000	0.00000	0.00000	-2833.86646	664.93048	557.21820	-2881.48022	714.27570	573.89148	-2883.43335	671.08606	574.68060	-2885.48779	490.54327	567.22638	-2896.29272	478.11768	468.76886	-2791.39526	449.73276	568.46393	-2758.71338	420.27509	568.61041	-2828.17993	400.77707	565.47095	-2789.74365	377.56833	567.27448	-2608.50439	250.32466	559.62408	0.00000	0.00000	0.00000	-2521.70605	263.63397	491.64008	-2647.27051	118.92186	607.13660	-2705.19336	91.95532	555.80713	-2678.99487	109.31743	501.00275	-2797.85205	1025.22437	286.23254	-2991.43506	977.25140	199.02161	0.00000	0.00000	0.00000	0.00000	0.00000	0.00000	-3073.14111	639.57855	173.84828	-3085.75537	594.82996	184.70349	0.00000	0.00000	0.00000	-3038.73926	510.86923	300.24567	-3015.07056	266.18631	154.89935	0.00000	0.00000	0.00000	-3077.27832	267.35928	166.34531	-3073.58423	219.58916	169.40247	0.00000	0.00000	0.00000	-3072.97168	138.70178	270.65088	-2978.56665	72.45299	268.28134	-3193.02612	61.84932	261.84085	-3223.13013	71.42645	207.26955	-3156.16040	48.62219	149.01686
1793	7.16800	0.00000	0.00000	0.00000	-2970.96045	990.01971	493.65045	0.00000	0.00000	0.00000	-2839.59668	665.25726	556.84045	-2886.74902	715.29761	573.60876	-2889.09155	672.11469	574.42242	-2893.55884	490.78867	567.40851	-2907.34326	480.70984	469.29486	-2798.65015	450.92575	567.52026	-2765.86450	421.52774	567.11340	-2835.50610	402.10751	565.10852	-2797.06201	379.01633	566.84198	-2615.33350	252.60580	558.39056	-2629.00171	242.51903	469.69272	-2528.56396	266.26947	489.96329	-2653.14453	121.02090	605.81110	-2711.17041	93.86015	554.62573	-2685.20410	111.37973	499.76587	-2801.23267	1026.06702	285.07437	-2996.06177	978.41119	198.52341	0.00000	0.00000	0.00000	0.00000	0.00000	0.00000	-3076.36719	640.35645	173.93437	-3087.36865	594.79163	184.40892	-3024.51782	529.21185	159.63695	-3039.71851	511.12567	300.04492	-3015.53296	266.33194	154.93527	0.00000	0.00000	0.00000	-3077.75854	267.31207	166.30026	-3074.06226	219.66338	169.40659	-3027.30444	111.83493	183.37572	-3073.14258	138.74448	270.76050	-2978.60522	72.51225	268.31735	-3193.12476	61.74342	261.87582	-3223.23267	71.28137	207.34612	-3156.16870	48.62522	149.03998
1794	7.17200	0.00000	0.00000	0.00000	-2974.09912	991.31335	493.06790	0.00000	0.00000	0.00000	-2845.49780	665.90405	556.80304	-2891.96021	716.33868	573.35162	-2894.79834	673.21973	574.22888	-2900.60571	492.85965	566.95337	-2915.15527	481.80179	469.22403	-2807.83618	449.46979	568.33661	-2773.68604	423.64978	567.37366	-2842.75659	403.36188	564.71887	-2804.41455	380.66077	566.32202	-2622.07544	254.53645	557.25580	-2635.99512	244.68805	468.44177	0.00000	0.00000	0.00000	-2659.16699	122.82033	604.63489	-2717.33838	95.70499	553.55957	-2691.75269	113.39056	498.60526	-2806.24219	1027.22302	285.51102	0.00000	0.00000	0.00000	0.00000	0.00000	0.00000	0.00000	0.00000	0.00000	-3077.94824	640.18573	173.37686	-3088.97461	594.75128	184.00656	-3025.55005	529.31451	159.42558	-3040.76636	511.34085	299.87671	-3016.01343	266.50739	154.97504	0.00000	0.00000	0.00000	-3078.38281	267.37390	166.21811	-3074.45532	219.70422	169.45137	-3026.59180	110.91019	184.06531	-3073.29468	138.76247	270.85260	-2978.63550	72.59956	268.37836	-3193.16162	61.62355	261.90097	-3223.33301	71.14263	207.42126	-3156.20142	48.63585	149.05577
